<?xml version="1.0" encoding="utf-8" ?>
<svg xmlns="http://www.w3.org/2000/svg" xmlns:xlink="http://www.w3.org/1999/xlink" width="30" height="30" viewBox="0 0 30 30">
	<defs>
		<clipPath id="clipPath8622758034">
			<path d="M0 0L30 0L30 30L0 30L0 0Z" fill-rule="nonzero" transform="matrix(1 0 0 1 0 0)"/>
		</clipPath>
	</defs>
	<g clip-path="url(#clipPath8622758034)">
		<path d="M9.38036 6.56592L9.37509 6.56592L9.38036 6.56592ZM15.9112 4.69092L10.5757 4.69092L11.0983 2.60146L13.3436 1.83681C13.8212 1.67451 14.1054 1.16709 13.9677 0.681932C13.8938 0.42445 13.7381 0.233693 13.5006 0.109658C13.2632 -0.0143768 13.0177 -0.0331892 12.7642 0.0532208L10.0102 0.990721C9.85957 1.0421 9.73037 1.12639 9.62263 1.24359C9.5149 1.36079 9.44176 1.49662 9.40322 1.65107L8.64325 4.69092L0.963956 4.69092C0.459464 4.69092 0.0264564 5.07881 0.00126064 5.5833C-0.0116247 5.85071 0.0742775 6.08133 0.258967 6.27515C0.443657 6.46897 0.669864 6.56589 0.937589 6.56592L1.09872 6.56592L1.15732 7.07334C1.1716 7.19599 1.22487 7.29835 1.31712 7.38043C1.40937 7.4625 1.51724 7.5035 1.64071 7.50342C3.92587 7.50342 5.95673 8.14209 7.50712 9.35029C7.93829 9.68251 8.32642 10.0591 8.67149 10.4801C9.01657 10.901 9.3097 11.3555 9.55087 11.8435C9.68587 12.1179 9.80299 12.3998 9.90221 12.6892C10.0014 12.9785 10.082 13.273 10.1438 13.5726C10.1562 13.6309 10.179 13.6849 10.2123 13.7343C10.2457 13.7838 10.2871 13.8252 10.3366 13.8585C11.1578 14.4157 11.7132 15.1688 12.0029 16.1179C12.2926 17.0671 12.2524 18.002 11.8823 18.9228C11.8614 18.9745 11.8502 19.0282 11.8487 19.084C11.8472 19.1397 11.8555 19.194 11.8735 19.2468C11.9773 19.5442 12.0556 19.8482 12.1083 20.1588C12.161 20.4694 12.1874 20.7821 12.1876 21.0972C12.1876 22.4061 11.7423 23.6536 10.9337 24.6099C10.7045 24.8827 10.4475 25.1264 10.1628 25.3407C9.87811 25.5551 9.57296 25.7347 9.24736 25.8796C9.19102 25.9044 9.1415 25.939 9.09879 25.9833C9.05609 26.0276 9.02338 26.0784 9.00068 26.1356C8.879 26.4526 8.7328 26.7578 8.56207 27.0513C8.39135 27.3448 8.19829 27.6228 7.9829 27.8853C7.9646 27.907 7.95356 27.9319 7.94979 27.9601C7.94601 27.9883 7.95008 28.0153 7.96201 28.0411C7.97393 28.0669 7.99185 28.0874 8.01575 28.1028C8.03965 28.1182 8.06581 28.1259 8.09423 28.1261L10.9776 28.1261C11.7093 28.1231 12.344 27.8735 12.8818 27.3774C13.4196 26.8813 13.7194 26.2688 13.7813 25.5397L15.7852 6.56592L15.9376 6.56592C16.2055 6.56623 16.432 6.46945 16.617 6.27557C16.8019 6.0817 16.888 5.85094 16.8751 5.5833C16.8505 5.07881 16.4157 4.69092 15.9112 4.69092Z" fill-rule="nonzero" transform="matrix(1 0 0 1 12.1874 0.934084)" fill="rgb(106, 27, 154)"/>
		<path d="M5.43106 8.4375C5.61779 8.43662 5.7975 8.47173 5.97017 8.54283C6.14285 8.61393 6.29517 8.71554 6.42715 8.84766L7.33594 9.75645C7.38171 9.80227 7.43699 9.82519 7.50176 9.82519C7.56653 9.82519 7.6218 9.80227 7.66758 9.75645L8.57461 8.84766C8.70658 8.71554 8.85891 8.61393 9.03158 8.54283C9.20426 8.47173 9.38397 8.43662 9.5707 8.4375L21.0891 8.4375C21.2185 8.4388 21.3295 8.39414 21.4219 8.30353C21.5143 8.21291 21.5612 8.10288 21.5625 7.97344L21.5625 7.96875C21.5618 7.41208 21.3855 6.91812 21.0334 6.48689C20.6814 6.05566 20.2328 5.78399 19.6875 5.67187C19.6395 3.93223 18.9258 2.47617 17.6068 1.45312C16.3869 0.501562 14.7568 0 12.8906 0L8.67188 0C4.67461 0 1.96699 2.27168 1.875 5.67187C1.32973 5.78399 0.881087 6.05566 0.52906 6.48689C0.177034 6.91812 0.000680294 7.41208 5.02914e-07 7.96875C4.65661e-07 8.09819 0.045765 8.20868 0.137294 8.30021C0.228823 8.39174 0.339309 8.4375 0.468751 8.4375L5.43106 8.4375ZM9.95742 10.3125C9.89524 10.3125 9.83542 10.3243 9.77796 10.3481C9.7205 10.3718 9.66977 10.4057 9.62578 10.4496L8.32852 11.7475C8.09971 11.9762 7.82354 12.0906 7.5 12.0906C7.17647 12.0906 6.90029 11.9762 6.67148 11.7475L5.37422 10.4496C5.33023 10.4057 5.2795 10.3718 5.22204 10.3481C5.16458 10.3243 5.10476 10.3125 5.04258 10.3125L0.976172 10.3125C0.748832 10.3115 0.547938 10.3839 0.373488 10.5297C0.199039 10.6754 0.0921212 10.8603 0.0527346 11.0842C0.0351342 11.189 0.0219318 11.2944 0.0131276 11.4004C0.00432322 11.5063 -5.24707e-05 11.6124 5.02914e-07 11.7188C5.02914e-07 13.5111 1.23809 14.9713 2.76914 15C2.91152 15.8859 3.25606 16.6863 3.77461 17.3127C4.5416 18.2391 5.65664 18.75 6.91406 18.75L14.6484 18.75C15.9059 18.75 17.0209 18.2391 17.7879 17.3115C18.3064 16.6852 18.651 15.8848 18.7934 14.9988C20.3244 14.9713 21.5625 13.5111 21.5625 11.7176C21.5626 11.6113 21.5582 11.5051 21.5494 11.3992C21.5406 11.2932 21.5274 11.1879 21.5098 11.083C21.4701 10.8593 21.3631 10.6747 21.1887 10.5292C21.0143 10.3837 20.8135 10.3114 20.5863 10.3125L9.95742 10.3125Z" fill-rule="nonzero" transform="matrix(1 0 0 1 0.9375 10.3125)" fill="rgb(106, 27, 154)"/>
	</g>
</svg>
